<svg xmlns="http://www.w3.org/2000/svg" xmlns:xlink="http://www.w3.org/1999/xlink" width="68.527" height="124.204" viewBox="0 0 68.527 124.204"><defs><clipPath id="clip-path"><rect id="Rect&#xE1;ngulo_4986" data-name="Rect&#xE1;ngulo 4986" width="68.527" height="124.204" fill="#2d42cb"></rect></clipPath><clipPath id="clip-path-2"><rect id="Rect&#xE1;ngulo_4987" data-name="Rect&#xE1;ngulo 4987" width="68.527" height="124.204" fill="#19356c"></rect></clipPath></defs><g id="Grupo_14715" data-name="Grupo 14715" transform="translate(-891 -4253)"><g id="Grupo_14479" data-name="Grupo 14479" transform="translate(891 4253)"><g id="Grupo_14476" data-name="Grupo 14476"><g id="Grupo_14475" data-name="Grupo 14475" clip-path="url(#clip-path)"><path id="Trazado_10593" data-name="Trazado 10593" d="M62.675,227.15H21.03a1.227,1.227,0,0,1-1.2-.966l-4.9-22.537a1.227,1.227,0,0,1,1.2-1.488H67.575a1.227,1.227,0,0,1,1.2,1.488l-4.9,22.537A1.227,1.227,0,0,1,62.675,227.15ZM22.019,224.7H61.687l4.366-20.084h-48.4Z" transform="translate(-7.589 -102.946)" fill="#2d42cb"></path><path id="Rect&#xE1;ngulo_4985" data-name="Rect&#xE1;ngulo 4985" d="M-1.273-2.5H59.971A1.227,1.227,0,0,1,61.2-1.273v9.8a1.227,1.227,0,0,1-1.227,1.227H-1.273A1.227,1.227,0,0,1-2.5,8.526v-9.8A1.227,1.227,0,0,1-1.273-2.5ZM58.744-.046H-.046V7.3h58.79Z" transform="translate(4.915 91.914)" fill="#2d42cb"></path></g></g><path id="L&#xED;nea_17" data-name="L&#xED;nea 17" d="M-1.273,39.15A1.227,1.227,0,0,1-2.5,37.923v-39.2A1.227,1.227,0,0,1-1.273-2.5,1.227,1.227,0,0,1-.046-1.273v39.2A1.227,1.227,0,0,1-1.273,39.15Z" transform="translate(35.536 52.718)" fill="#2d42cb"></path><g id="Grupo_14478" data-name="Grupo 14478"><g id="Grupo_14477" data-name="Grupo 14477" clip-path="url(#clip-path-2)"><path id="Trazado_10594" data-name="Trazado 10594" d="M56.474,157.536a1.223,1.223,0,0,1-.852-.344l-1.293-1.247a41.028,41.028,0,0,0-10.035-7.189,1.227,1.227,0,0,1,1.1-2.195,43.479,43.479,0,0,1,10.64,7.616l1.295,1.248a1.227,1.227,0,0,1-.852,2.11Z" transform="translate(-22.21 -74.568)" fill="#2d42cb"></path><path id="Trazado_10595" data-name="Trazado 10595" d="M9.517,121.993h0a14.536,14.536,0,0,1,5.586,1.121,14.456,14.456,0,0,1,6.243,4.923,13.267,13.267,0,0,1,2.51,7.119,1.227,1.227,0,0,1-.4.962,12.987,12.987,0,0,1-4.194,2.56,13.894,13.894,0,0,1-4.924.89,14.674,14.674,0,0,1-11.829-6.044A13.267,13.267,0,0,1,0,126.405a1.227,1.227,0,0,1,.4-.962,12.988,12.988,0,0,1,4.194-2.56A13.892,13.892,0,0,1,9.517,121.993Zm11.846,12.694a11.538,11.538,0,0,0-7.2-9.306,12.094,12.094,0,0,0-4.648-.934,11.447,11.447,0,0,0-4.057.732,10.613,10.613,0,0,0-2.965,1.7,11.539,11.539,0,0,0,7.2,9.306,12.093,12.093,0,0,0,4.647.934,11.448,11.448,0,0,0,4.058-.732A10.61,10.61,0,0,0,21.363,134.687Z" transform="translate(0 -62.123)" fill="#2d42cb"></path><path id="Trazado_10596" data-name="Trazado 10596" d="M68.543,157.535a1.227,1.227,0,0,1-.852-2.11l1.294-1.247a43.469,43.469,0,0,1,10.641-7.617,1.227,1.227,0,0,1,1.1,2.2,41.018,41.018,0,0,0-10.036,7.19l-1.293,1.246A1.223,1.223,0,0,1,68.543,157.535Z" transform="translate(-34.28 -74.567)" fill="#2d42cb"></path><path id="Trazado_10597" data-name="Trazado 10597" d="M105.358,121.993a13.892,13.892,0,0,1,4.924.89,12.989,12.989,0,0,1,4.194,2.56,1.227,1.227,0,0,1,.4.962,13.268,13.268,0,0,1-2.51,7.119,14.673,14.673,0,0,1-11.829,6.044,13.9,13.9,0,0,1-4.924-.89,12.989,12.989,0,0,1-4.194-2.56,1.227,1.227,0,0,1-.4-.962,13.266,13.266,0,0,1,2.51-7.119,14.676,14.676,0,0,1,11.83-6.044Zm7.022,4.882a10.613,10.613,0,0,0-2.965-1.7,11.447,11.447,0,0,0-4.057-.732,12.094,12.094,0,0,0-4.648.934,11.539,11.539,0,0,0-7.2,9.306,10.614,10.614,0,0,0,2.965,1.7,11.45,11.45,0,0,0,4.058.732,12.1,12.1,0,0,0,4.647-.934A11.539,11.539,0,0,0,112.379,126.874Z" transform="translate(-46.348 -62.123)" fill="#2d42cb"></path><path id="Trazado_10598" data-name="Trazado 10598" d="M41.855,53.894A26.947,26.947,0,1,1,68.8,26.947,26.978,26.978,0,0,1,41.855,53.894" transform="translate(-7.592)" fill="#dedede"></path><path id="Trazado_10599" data-name="Trazado 10599" d="M63.459,54.494h-4.9a1.227,1.227,0,0,1,0-2.454h4.9a3.672,3.672,0,0,0,0-7.345,6.126,6.126,0,0,1,0-12.253h4.9a1.227,1.227,0,0,1,0,2.454h-4.9a3.673,3.673,0,0,0,0,7.345,6.126,6.126,0,1,1,0,12.252Z" transform="translate(-29.196 -16.521)" fill="#2d42cb"></path><path id="L&#xED;nea_18" data-name="L&#xED;nea 18" d="M-1.273,4.853A1.227,1.227,0,0,1-2.5,3.626v-4.9A1.227,1.227,0,0,1-1.273-2.5,1.227,1.227,0,0,1-.046-1.273v4.9A1.227,1.227,0,0,1-1.273,4.853Z" transform="translate(35.536 13.522)" fill="#2d42cb"></path><path id="L&#xED;nea_19" data-name="L&#xED;nea 19" d="M-1.273,4.853A1.227,1.227,0,0,1-2.5,3.626v-4.9A1.227,1.227,0,0,1-1.273-2.5,1.227,1.227,0,0,1-.046-1.273v4.9A1.227,1.227,0,0,1-1.273,4.853Z" transform="translate(35.536 38.019)" fill="#2d42cb"></path></g></g></g></g></svg>