<svg xmlns="http://www.w3.org/2000/svg" xmlns:xlink="http://www.w3.org/1999/xlink" id="Grupo_14714" data-name="Grupo 14714" width="139.985" height="124.159" viewBox="0 0 139.985 124.159"><defs><clipPath id="clip-path"><rect id="Rect&#xE1;ngulo_4984" data-name="Rect&#xE1;ngulo 4984" width="139.985" height="124.159" fill="#2d42cb"></rect></clipPath></defs><g id="Grupo_14473" data-name="Grupo 14473" clip-path="url(#clip-path)"><path id="Trazado_10591" data-name="Trazado 10591" d="M82.962,95.34a36.932,36.932,0,0,0,9.291-5.816,6.412,6.412,0,0,1,10.884-2.818,37.2,37.2,0,0,0,12.247,8.635,36.528,36.528,0,0,0,14.573,2.992v-.161a15.656,15.656,0,0,1-11.09-26.706V56.421a50.067,50.067,0,0,0,16.465-11.575,6.411,6.411,0,1,0-9.338-8.786,37.183,37.183,0,0,1-12.247,8.635,36.983,36.983,0,0,1-29.146,0,37.183,37.183,0,0,1-12.247-8.635,6.411,6.411,0,0,0-9.338,8.786A50.075,50.075,0,0,0,79.48,56.421V71.465A15.656,15.656,0,0,1,68.39,98.172v.161A36.52,36.52,0,0,0,82.962,95.34" transform="translate(-29.181 -16.212)" fill="#dedede" fill-rule="evenodd"></path><path id="Trazado_10592" data-name="Trazado 10592" d="M114.067.939a15.656,15.656,0,1,1-9.392,20.05A15.656,15.656,0,0,1,114.067.939" transform="translate(-49.403 0)" fill="#dedede" fill-rule="evenodd"></path><path id="Trazado_10593" data-name="Trazado 10593" d="M60.212,185.23h-42V152.775A51.375,51.375,0,0,1,2.1,141.248a7.72,7.72,0,1,1,11.245-10.581,36.425,36.425,0,0,0,5.484,4.767A35.445,35.445,0,0,0,25.158,139a34.788,34.788,0,0,0,6.741,2.137,36.141,36.141,0,0,0,14.62,0A34.8,34.8,0,0,0,53.261,139a35.565,35.565,0,0,0,8.793-5.468l1.69,2a38.182,38.182,0,0,1-9.44,5.87,37.42,37.42,0,0,1-7.25,2.3,38.759,38.759,0,0,1-15.688,0,37.41,37.41,0,0,1-7.25-2.3,38.069,38.069,0,0,1-6.8-3.828,39.051,39.051,0,0,1-5.88-5.111,5.1,5.1,0,1,0-7.431,6.991,48.757,48.757,0,0,0,16.033,11.272l.787.342v31.544H57.593V151.067l.787-.342A48.831,48.831,0,0,0,68.862,144.5l1.607,2.067a51.461,51.461,0,0,1-10.257,6.206V185.23Z" transform="translate(0 -61.071)" fill="#2d42cb"></path><path id="Trazado_10594" data-name="Trazado 10594" d="M177.757,185.23h-42V152.775a51.375,51.375,0,0,1-16.108-11.528,7.72,7.72,0,1,1,11.245-10.58,36.413,36.413,0,0,0,5.484,4.767A35.436,35.436,0,0,0,142.7,139a34.786,34.786,0,0,0,6.741,2.137,36.14,36.14,0,0,0,14.62,0A34.8,34.8,0,0,0,170.807,139a35.446,35.446,0,0,0,6.33-3.564,36.432,36.432,0,0,0,5.484-4.767,7.72,7.72,0,0,1,11.245,10.581,51.376,51.376,0,0,1-16.109,11.529Zm-39.386-2.619h36.767V151.067l.787-.342a48.759,48.759,0,0,0,16.034-11.273,5.1,5.1,0,1,0-7.431-6.991,39.06,39.06,0,0,1-5.88,5.111,38.072,38.072,0,0,1-6.8,3.828,37.423,37.423,0,0,1-7.25,2.3,38.759,38.759,0,0,1-15.688,0,37.412,37.412,0,0,1-7.25-2.3,38.059,38.059,0,0,1-6.8-3.827,39.042,39.042,0,0,1-5.88-5.111,5.1,5.1,0,1,0-7.431,6.991,48.759,48.759,0,0,0,16.033,11.272l.787.342Z" transform="translate(-55.979 -61.07)" fill="#2d42cb"></path><path id="Trazado_10595" data-name="Trazado 10595" d="M121,128.13a16.915,16.915,0,1,1,6.6-1.334A16.86,16.86,0,0,1,121,128.13Zm0-31.312a14.3,14.3,0,1,0,5.584,1.127A14.255,14.255,0,0,0,121,96.818ZM59.434,128.13a16.916,16.916,0,1,1,6.6-1.334A16.86,16.86,0,0,1,59.434,128.13Zm0-31.312a14.3,14.3,0,1,0,5.584,1.127A14.255,14.255,0,0,0,59.434,96.818Z" transform="translate(-20.225 -44.861)" fill="#2d42cb"></path></g></svg>