<svg xmlns="http://www.w3.org/2000/svg" xmlns:xlink="http://www.w3.org/1999/xlink" id="Grupo_14713" data-name="Grupo 14713" width="135" height="124.204" viewBox="0 0 135 124.204"><defs><clipPath id="clip-path"><rect id="Rect&#xE1;ngulo_4983" data-name="Rect&#xE1;ngulo 4983" width="135" height="124.204" fill="none"></rect></clipPath></defs><g id="Grupo_14471" data-name="Grupo 14471" clip-path="url(#clip-path)"><path id="Trazado_10590" data-name="Trazado 10590" d="M110.075,76.547h0A43.165,43.165,0,1,0,86.7,106.612a29.692,29.692,0,0,1,23.38-30.064" transform="translate(-12.302 -12.301)" fill="#dedede"></path><path id="Trazado_10591" data-name="Trazado 10591" d="M55.479,110.96a55.47,55.47,0,1,1,54.8-46.771,1.5,1.5,0,1,1-2.963-.466A52.444,52.444,0,1,0,76.224,103.7a1.5,1.5,0,0,1,1.187,2.754A55.1,55.1,0,0,1,55.479,110.96Z" transform="translate(0 -0.001)" fill="#2d42cb"></path><path id="Trazado_10592" data-name="Trazado 10592" d="M104.086,97.186a6.9,6.9,0,1,1-4.877,2.02A6.854,6.854,0,0,1,104.086,97.186Zm0,10.8a3.9,3.9,0,1,0-2.756-1.142A3.874,3.874,0,0,0,104.086,107.982Z" transform="translate(-48.607 -48.604)" fill="#2d42cb"></path><path id="L&#xED;nea_17" data-name="L&#xED;nea 17" d="M-1.5,2.7A1.5,1.5,0,0,1-3,1.2V-1.5A1.5,1.5,0,0,1-1.5-3,1.5,1.5,0,0,1,0-1.5V1.2A1.5,1.5,0,0,1-1.5,2.7Z" transform="translate(56.98 24.592)" fill="#2d42cb"></path><path id="L&#xED;nea_18" data-name="L&#xED;nea 18" d="M.408,1.908a1.5,1.5,0,0,1-1.06-.439L-2.561-.44a1.5,1.5,0,0,1,0-2.121,1.5,1.5,0,0,1,2.121,0L1.469-.652a1.5,1.5,0,0,1,0,2.121A1.5,1.5,0,0,1,.408,1.908Z" transform="translate(34.078 34.078)" fill="#2d42cb"></path><path id="L&#xED;nea_19" data-name="L&#xED;nea 19" d="M1.2,0H-1.5A1.5,1.5,0,0,1-3-1.5,1.5,1.5,0,0,1-1.5-3H1.2A1.5,1.5,0,0,1,2.7-1.5,1.5,1.5,0,0,1,1.2,0Z" transform="translate(24.592 56.98)" fill="#2d42cb"></path><path id="L&#xED;nea_20" data-name="L&#xED;nea 20" d="M-1.5,1.908a1.5,1.5,0,0,1-1.06-.439,1.5,1.5,0,0,1,0-2.121L-.652-2.561a1.5,1.5,0,0,1,2.121,0,1.5,1.5,0,0,1,0,2.121L-.44,1.469A1.5,1.5,0,0,1-1.5,1.908Z" transform="translate(34.078 77.973)" fill="#2d42cb"></path><path id="L&#xED;nea_21" data-name="L&#xED;nea 21" d="M-1.5,2.7A1.5,1.5,0,0,1-3,1.2V-1.5A1.5,1.5,0,0,1-1.5-3,1.5,1.5,0,0,1,0-1.5V1.2A1.5,1.5,0,0,1-1.5,2.7Z" transform="translate(56.98 86.669)" fill="#2d42cb"></path><path id="L&#xED;nea_22" data-name="L&#xED;nea 22" d="M1.2,0H-1.5A1.5,1.5,0,0,1-3-1.5,1.5,1.5,0,0,1-1.5-3H1.2A1.5,1.5,0,0,1,2.7-1.5,1.5,1.5,0,0,1,1.2,0Z" transform="translate(86.669 56.98)" fill="#2d42cb"></path><path id="L&#xED;nea_23" data-name="L&#xED;nea 23" d="M-1.5,1.908a1.5,1.5,0,0,1-1.06-.439,1.5,1.5,0,0,1,0-2.121L-.652-2.561a1.5,1.5,0,0,1,2.121,0,1.5,1.5,0,0,1,0,2.121L-.44,1.469A1.5,1.5,0,0,1-1.5,1.908Z" transform="translate(77.973 34.078)" fill="#2d42cb"></path><path id="L&#xED;nea_24" data-name="L&#xED;nea 24" d="M-1.5,13.494a1.5,1.5,0,0,1-1.5-1.5V-1.5A1.5,1.5,0,0,1-1.5-3,1.5,1.5,0,0,1,0-1.5V11.995A1.5,1.5,0,0,1-1.5,13.494Z" transform="translate(56.98 38.087)" fill="#2d42cb"></path><path id="Elipse_143" data-name="Elipse 143" d="M17.643-2.5A20.137,20.137,0,0,1,31.886,31.886,20.143,20.143,0,1,1,9.8-.917,20.018,20.018,0,0,1,17.643-2.5Zm0,37.786a17.648,17.648,0,0,0,6.867-33.9A17.648,17.648,0,0,0,10.776,33.9,17.532,17.532,0,0,0,17.643,35.286Z" transform="translate(86.419 75.623)" fill="#2d42cb"></path><path id="Trazado_10593" data-name="Trazado 10593" d="M195.871,187.7h0a1.5,1.5,0,0,1-1.06-.439l-5.4-5.4a1.5,1.5,0,0,1,2.121-2.121l4.337,4.338,8.611-8.611a1.5,1.5,0,0,1,2.121,2.121l-9.672,9.672A1.5,1.5,0,0,1,195.871,187.7Z" transform="translate(-94.509 -87.533)" fill="#dedede"></path><path id="Elipse_144" data-name="Elipse 144" d="M28.439-2.5a30.8,30.8,0,0,1,17.3,5.285A31.026,31.026,0,0,1,56.946,16.4a30.9,30.9,0,0,1-2.853,29.342A31.025,31.025,0,0,1,40.482,56.946,30.9,30.9,0,0,1,11.14,54.093,31.025,31.025,0,0,1-.068,40.482,30.9,30.9,0,0,1,2.785,11.14,31.025,31.025,0,0,1,16.4-.068,30.746,30.746,0,0,1,28.439-2.5Zm0,59.378a28.3,28.3,0,0,0,15.9-4.856A28.526,28.526,0,0,0,54.644,39.508a28.4,28.4,0,0,0-2.622-26.969A28.526,28.526,0,0,0,39.508,2.234,28.4,28.4,0,0,0,12.539,4.856,28.526,28.526,0,0,0,2.234,17.369,28.4,28.4,0,0,0,4.856,44.339,28.526,28.526,0,0,0,17.369,54.644,28.26,28.26,0,0,0,28.439,56.878Z" transform="translate(75.623 64.827)" fill="#2d42cb"></path></g></svg>