<svg xmlns="http://www.w3.org/2000/svg" xmlns:xlink="http://www.w3.org/1999/xlink" id="Grupo_14597" data-name="Grupo 14597" width="164" height="163.991" viewBox="0 0 164 163.991"><defs><clipPath id="clip-path"><rect id="Rect&#xE1;ngulo_5063" data-name="Rect&#xE1;ngulo 5063" width="164" height="163.991" fill="#19356c"></rect></clipPath><clipPath id="clip-path-2"><path id="Trazado_10889" data-name="Trazado 10889" d="M86.01,122.1a36.084,36.084,0,1,0,36.084-36.084A36.084,36.084,0,0,0,86.01,122.1" transform="translate(-86.01 -86.021)" fill="#013944"></path></clipPath></defs><g id="Grupo_14594" data-name="Grupo 14594"><g id="Grupo_14593" data-name="Grupo 14593" clip-path="url(#clip-path)"><path id="Trazado_10868" data-name="Trazado 10868" d="M122.094,86.021A36.084,36.084,0,1,1,86.01,122.1a36.084,36.084,0,0,1,36.084-36.084" transform="translate(-40.099 -40.104)" fill="#dedede"></path><path id="Trazado_10869" data-name="Trazado 10869" d="M110.652,159.848a49.184,49.184,0,1,1,49.184-49.184,49.24,49.24,0,0,1-49.184,49.184m0-95.165a45.981,45.981,0,1,0,45.981,45.981,46.034,46.034,0,0,0-45.981-45.981" transform="translate(-28.656 -28.662)" fill="#2d42cb"></path><path id="Trazado_10870" data-name="Trazado 10870" d="M152.21,53.218a1.6,1.6,0,0,1-1.6-1.6V38.49a1.6,1.6,0,1,1,3.2,0V51.617a1.6,1.6,0,0,1-1.6,1.6" transform="translate(-70.215 -17.198)" fill="#2d42cb"></path><path id="Trazado_10871" data-name="Trazado 10871" d="M143.616,22.9a11.45,11.45,0,1,1,3.424-.528,11.465,11.465,0,0,1-3.424.528M141.137,3.588h0a8.243,8.243,0,1,0,6.284.556,8.253,8.253,0,0,0-6.284-.556" transform="translate(-61.613 0)" fill="#2d42cb"></path><path id="Trazado_10872" data-name="Trazado 10872" d="M215.243,82.684a1.6,1.6,0,0,1-1.133-2.734l9.282-9.282a1.6,1.6,0,0,1,2.265,2.264l-9.282,9.282a1.6,1.6,0,0,1-1.133.469" transform="translate(-99.602 -32.727)" fill="#2d42cb"></path><path id="Trazado_10873" data-name="Trazado 10873" d="M237.074,61.608A11.446,11.446,0,1,1,248.52,50.162a11.459,11.459,0,0,1-11.446,11.446m0-19.689a8.243,8.243,0,1,0,8.243,8.243,8.253,8.253,0,0,0-8.243-8.243" transform="translate(-105.19 -18.05)" fill="#2d42cb"></path><path id="Trazado_10874" data-name="Trazado 10874" d="M254.478,153.823H241.351a1.6,1.6,0,1,1,0-3.2h13.126a1.6,1.6,0,0,1,0,3.2" transform="translate(-111.773 -70.22)" fill="#2d42cb"></path><path id="Trazado_10875" data-name="Trazado 10875" d="M275.791,155.069a11.46,11.46,0,1,1,4.38-.878,11.434,11.434,0,0,1-4.38.878m0-19.7a8.261,8.261,0,1,0,3.154.631,8.236,8.236,0,0,0-3.154-.631m-3.768-.848h0Z" transform="translate(-123.237 -61.616)" fill="#2d42cb"></path><path id="Trazado_10876" data-name="Trazado 10876" d="M224.525,226.137a1.6,1.6,0,0,1-1.132-.469l-9.282-9.282a1.6,1.6,0,1,1,2.264-2.264l9.282,9.282a1.6,1.6,0,0,1-1.132,2.734" transform="translate(-99.602 -99.607)" fill="#2d42cb"></path><path id="Trazado_10877" data-name="Trazado 10877" d="M237.074,248.532a11.446,11.446,0,1,1,11.446-11.446,11.459,11.459,0,0,1-11.446,11.446m0-19.689a8.243,8.243,0,1,0,8.243,8.243,8.253,8.253,0,0,0-8.243-8.243" transform="translate(-105.19 -105.195)" fill="#2d42cb"></path><path id="Trazado_10878" data-name="Trazado 10878" d="M152.21,256.091a1.6,1.6,0,0,1-1.6-1.6V241.363a1.6,1.6,0,1,1,3.2,0V254.49a1.6,1.6,0,0,1-1.6,1.6" transform="translate(-70.215 -111.779)" fill="#2d42cb"></path><path id="Trazado_10879" data-name="Trazado 10879" d="M143.639,287.223a11.441,11.441,0,1,1,5.522-1.429,11.454,11.454,0,0,1-5.522,1.429m-.031-19.691a8.2,8.2,0,0,0-3.978,1.034h0a8.192,8.192,0,1,0,3.979-1.034m-4.754-.367h0Z" transform="translate(-61.622 -123.232)" fill="#2d42cb"></path><path id="Trazado_10880" data-name="Trazado 10880" d="M71.79,226.137a1.6,1.6,0,0,1-1.132-2.734l9.282-9.282a1.6,1.6,0,1,1,2.265,2.264l-9.282,9.282a1.6,1.6,0,0,1-1.133.469" transform="translate(-32.723 -99.607)" fill="#2d42cb"></path><path id="Trazado_10881" data-name="Trazado 10881" d="M50.15,248.532A11.446,11.446,0,1,1,61.6,237.086,11.459,11.459,0,0,1,50.15,248.532m0-19.689a8.243,8.243,0,1,0,8.243,8.243,8.253,8.253,0,0,0-8.243-8.243" transform="translate(-18.044 -105.195)" fill="#2d42cb"></path><path id="Trazado_10882" data-name="Trazado 10882" d="M51.605,153.823H38.479a1.6,1.6,0,1,1,0-3.2H51.605a1.6,1.6,0,1,1,0,3.2" transform="translate(-17.193 -70.22)" fill="#2d42cb"></path><path id="Trazado_10883" data-name="Trazado 10883" d="M11.465,155.077a11.532,11.532,0,0,1-2.579-.293A11.446,11.446,0,0,1,5.361,133.93h0a11.446,11.446,0,1,1,6.1,21.147m-4.4-18.434h0a8.243,8.243,0,1,0,11.363,2.6,8.253,8.253,0,0,0-11.363-2.6" transform="translate(0 -61.625)" fill="#2d42cb"></path><path id="Trazado_10884" data-name="Trazado 10884" d="M81.072,82.684a1.6,1.6,0,0,1-1.133-.469l-9.282-9.282a1.6,1.6,0,0,1,2.265-2.264L82.2,79.95a1.6,1.6,0,0,1-1.133,2.734" transform="translate(-32.723 -32.727)" fill="#2d42cb"></path><path id="Trazado_10885" data-name="Trazado 10885" d="M50.15,61.608A11.446,11.446,0,1,1,61.6,50.162,11.459,11.459,0,0,1,50.15,61.608m0-19.689a8.243,8.243,0,1,0,8.243,8.243,8.253,8.253,0,0,0-8.243-8.243" transform="translate(-18.044 -18.05)" fill="#2d42cb"></path></g></g><g id="Grupo_14596" data-name="Grupo 14596" transform="translate(45.911 45.917)"><g id="Grupo_14595" data-name="Grupo 14595" clip-path="url(#clip-path-2)"><path id="Trazado_10886" data-name="Trazado 10886" d="M154.249,167.758H122.138a1.6,1.6,0,0,1-1.6-1.6V147.7a11.336,11.336,0,0,1,11.323-11.323h12.667A11.336,11.336,0,0,1,155.851,147.7v18.455a1.6,1.6,0,0,1-1.6,1.6m-30.509-3.2h28.908V147.7a8.129,8.129,0,0,0-8.121-8.121H131.86a8.13,8.13,0,0,0-8.121,8.121Z" transform="translate(-102.107 -109.498)" fill="#2d42cb"></path><path id="Trazado_10887" data-name="Trazado 10887" d="M147.447,219.376H136.021a1.6,1.6,0,0,1-1.56-1.238l-6.288-27.008a1.6,1.6,0,0,1,1.559-1.965h24a1.6,1.6,0,0,1,1.56,1.965l-6.289,27.008a1.6,1.6,0,0,1-1.56,1.238m-10.154-3.2h8.883l5.543-23.806H131.75Z" transform="translate(-105.647 -134.108)" fill="#2d42cb"></path><path id="Trazado_10888" data-name="Trazado 10888" d="M143.157,121.555a11.921,11.921,0,1,1,11.974-11.921,11.961,11.961,0,0,1-11.974,11.921m0-20.639a8.718,8.718,0,1,0,8.771,8.718,8.754,8.754,0,0,0-8.771-8.718" transform="translate(-107.07 -91.472)" fill="#2d42cb"></path></g></g></svg>