<svg xmlns="http://www.w3.org/2000/svg" xmlns:xlink="http://www.w3.org/1999/xlink" id="Grupo_14590" data-name="Grupo 14590" width="104.463" height="151.903" viewBox="0 0 104.463 151.903"><defs><clipPath id="clip-path"><rect id="Rect&#xE1;ngulo_5061" data-name="Rect&#xE1;ngulo 5061" width="104.463" height="151.903" fill="#013944"></rect></clipPath></defs><g id="Grupo_14589" data-name="Grupo 14589" clip-path="url(#clip-path)"><path id="Trazado_10852" data-name="Trazado 10852" d="M178.023,83.613c-23.281,1.862-24.275,19.06-23.764,30.447a10.829,10.829,0,0,1,16.716,2.45c.662.168,1.314.355,1.946.562.371-.737.731-1.444.761-1.5a50.466,50.466,0,0,0,4.341-31.958" transform="translate(-75.992 -41.213)" fill="#dedede"></path><path id="Trazado_10853" data-name="Trazado 10853" d="M9.972,121.533a10.819,10.819,0,0,1,18.869-3.418c.554-4.363.059-12.451-1.28-15-4.7-8.93-15.706-11.911-24.115-13.867A50.632,50.632,0,0,0,3,95.962,50.036,50.036,0,0,0,8.2,118.25l1.674,3.283Z" transform="translate(-1.478 -43.991)" fill="#dedede"></path><path id="Trazado_10854" data-name="Trazado 10854" d="M106.856,28.83c-9.285,6.8-23.351,15.56-31.732,11.545-6.357-3.048-9.549-7.637-15.693-6.639-7.32,1.19-8.5,9.909-15.57,9.909-12.487,0-19.045-9.39-22.865-19.077a50.863,50.863,0,0,1,85.86,4.263" transform="translate(-10.349 -1.477)" fill="#dedede"></path><path id="Trazado_10855" data-name="Trazado 10855" d="M96.075,79.062a1.522,1.522,0,0,1-1.356-2.209l.2-.387,1.414-2.79a48.237,48.237,0,0,0,5.091-21.7,49.244,49.244,0,0,0-83.974-34.6A48.769,48.769,0,0,0,8.089,73.584c.06.123.864,1.695,1.333,2.614l.334.653A1.521,1.521,0,1,1,7.043,78.23l-.332-.649c-.474-.929-1.287-2.52-1.348-2.644A51.812,51.812,0,0,1,15.3,15.219a52.286,52.286,0,0,1,89.162,36.752,51.252,51.252,0,0,1-5.412,23.064c-.048.1-1,1.975-1.422,2.807l-.2.385a1.523,1.523,0,0,1-1.359.835" transform="translate(0 0)" fill="#2d42cb"></path><path id="Trazado_10856" data-name="Trazado 10856" d="M96.807,269.267H84.917l-6.544-31.161H103.35Z" transform="translate(-38.63 -117.363)" fill="#dedede"></path><path id="Trazado_10857" data-name="Trazado 10857" d="M101.99,209.649H68.576a1.521,1.521,0,0,1-1.521-1.521v-19.2a11.651,11.651,0,0,1,11.638-11.637h13.18a11.651,11.651,0,0,1,11.638,11.637v19.2a1.521,1.521,0,0,1-1.521,1.521M70.1,206.606h30.371V188.923a8.6,8.6,0,0,0-8.6-8.595H78.693a8.6,8.6,0,0,0-8.6,8.595Z" transform="translate(-33.052 -87.385)" fill="#2d42cb"></path><path id="Trazado_10858" data-name="Trazado 10858" d="M167.882,209.649H134.468a1.521,1.521,0,0,1-1.521-1.521v-19.2a11.651,11.651,0,0,1,11.638-11.637h13.18A11.651,11.651,0,0,1,169.4,188.923v19.2a1.521,1.521,0,0,1-1.521,1.521m-31.892-3.043h30.371V188.923a8.6,8.6,0,0,0-8.6-8.595h-13.18a8.6,8.6,0,0,0-8.6,8.595Z" transform="translate(-65.53 -87.385)" fill="#2d42cb"></path><path id="Trazado_10859" data-name="Trazado 10859" d="M161.22,266.252H149.33a1.522,1.522,0,0,1-1.482-1.176l-6.544-28.1a1.522,1.522,0,0,1,1.482-1.867h24.977a1.521,1.521,0,0,1,1.482,1.867l-6.544,28.1a1.522,1.522,0,0,1-1.482,1.176m-10.682-3.043h9.474l5.835-25.061H144.7Z" transform="translate(-69.63 -115.885)" fill="#2d42cb"></path><path id="Trazado_10860" data-name="Trazado 10860" d="M25.139,159.453a12.259,12.259,0,1,1,12.315-12.259,12.3,12.3,0,0,1-12.315,12.259m0-21.476a9.217,9.217,0,1,0,9.272,9.217,9.255,9.255,0,0,0-9.272-9.217" transform="translate(-6.321 -66.51)" fill="#2d42cb"></path><path id="Trazado_10861" data-name="Trazado 10861" d="M91.031,159.453a12.259,12.259,0,1,1,12.315-12.259,12.3,12.3,0,0,1-12.315,12.259m0-21.476a9.217,9.217,0,1,0,9.272,9.217,9.255,9.255,0,0,0-9.272-9.217" transform="translate(-38.799 -66.51)" fill="#2d42cb"></path><path id="Trazado_10862" data-name="Trazado 10862" d="M156.923,159.453a12.259,12.259,0,1,1,12.315-12.259,12.3,12.3,0,0,1-12.315,12.259m0-21.476a9.217,9.217,0,1,0,9.272,9.217,9.255,9.255,0,0,0-9.272-9.217" transform="translate(-71.278 -66.51)" fill="#2d42cb"></path><path id="Trazado_10863" data-name="Trazado 10863" d="M36.1,209.649H2.683a1.521,1.521,0,0,1-1.521-1.521v-19.2A11.651,11.651,0,0,1,12.8,177.286H25.98a11.651,11.651,0,0,1,11.638,11.637v19.2a1.521,1.521,0,0,1-1.521,1.521M4.2,206.606H34.576V188.923a8.6,8.6,0,0,0-8.6-8.595H12.8a8.6,8.6,0,0,0-8.6,8.595Z" transform="translate(-0.573 -87.385)" fill="#2d42cb"></path><path id="Trazado_10864" data-name="Trazado 10864" d="M29.435,266.252H17.546a1.522,1.522,0,0,1-1.482-1.176l-6.544-28.1A1.521,1.521,0,0,1,11,235.106H35.979a1.522,1.522,0,0,1,1.482,1.867l-6.544,28.1a1.521,1.521,0,0,1-1.482,1.176M18.754,263.21h9.474l5.835-25.061H12.918Z" transform="translate(-4.673 -115.885)" fill="#2d42cb"></path></g></svg>