<svg xmlns="http://www.w3.org/2000/svg" xmlns:xlink="http://www.w3.org/1999/xlink" id="Grupo_14592" data-name="Grupo 14592" width="146.676" height="163.615" viewBox="0 0 146.676 163.615"><defs><clipPath id="clip-path"><rect id="Rect&#xE1;ngulo_5062" data-name="Rect&#xE1;ngulo 5062" width="146.676" height="163.615" fill="#013944"></rect></clipPath></defs><g id="Grupo_14591" data-name="Grupo 14591" clip-path="url(#clip-path)"><path id="Trazado_10865" data-name="Trazado 10865" d="M48.713,110.455,58.957,69.827a57,57,0,1,0,48.228-3.042L97.048,93.913l22.808-.507-47.9,64.558,5.553-47.435Z" transform="translate(-12.979 -29.574)" fill="#dedede" fill-rule="evenodd"></path><path id="Trazado_10866" data-name="Trazado 10866" d="M86.053,130.062a1.671,1.671,0,0,1-1.659-1.866l5.334-45.575L62.8,82.552a1.672,1.672,0,0,1-1.617-2.08L81.157,1.263A1.672,1.672,0,0,1,82.778,0h51.78a1.671,1.671,0,0,1,1.566,2.257L113.571,62.613l20.343-.451a1.671,1.671,0,0,1,1.38,2.667L87.4,129.386a1.671,1.671,0,0,1-1.343.676m-21.1-50.848,26.66.069a1.672,1.672,0,0,1,1.655,1.866l-4.825,41.217,42.132-56.787-19.395.431a1.672,1.672,0,0,1-1.6-2.256L132.149,3.343H84.08Z" transform="translate(-27.072)" fill="#2d42cb"></path><path id="Trazado_10867" data-name="Trazado 10867" d="M73.337,180.372A73.338,73.338,0,0,1,48.761,37.937a1.672,1.672,0,0,1,1.12,3.15A69.994,69.994,0,1,0,99.86,42.258a1.671,1.671,0,0,1,1.266-3.094A73.338,73.338,0,0,1,73.337,180.372" transform="translate(0 -16.757)" fill="#2d42cb"></path></g></svg>